<?xml version="1.0" encoding="utf-8"?><svg xmlns="http://www.w3.org/2000/svg" xmlns:xlink="http://www.w3.org/1999/xlink" width="292" height="891" preserveAspectRatio="xMidYMid" viewBox="0 0 292 891" style="z-index:1;margin-right:-1.6px;display:block;background-color:rgb(221, 221, 221);animation-play-state:paused" ><g transform="translate(146,445.5) scale(1,1) translate(-146,-445.5)" style="transform:matrix(1, 0, 0, 1, 0, 0);animation-play-state:paused" ><defs style="animation-play-state:paused" ><linearGradient id="lg-0.921061111577707" x1="0" x2="0" y1="0" y2="1" style="animation-play-state:paused" ><stop stop-color="#98aaff" offset="0" style="animation-play-state:paused" ></stop>

  
<stop stop-color="#e9f6ff" offset="1" style="animation-play-state:paused" ></stop></linearGradient></defs>


<rect x="0" y="0" width="292" height="891" fill="url(#lg-0.921061111577707)" style="animation-play-state:paused" ></rect>
<circle cx="0" cy="425.92377655796554" r="52.563519535028725" fill="#c4d2ff" transform="matrix(1,0,0,1,0,0)" style="transform:matrix(1, 0, 0, 1, 0, 0);animation-play-state:paused" ></circle>
<circle cx="52.563519535028725" cy="455.0664230124502" r="44.18600935744446" fill="#c4d2ff" transform="matrix(1,0,0,1,-0.005429744720458984,0)" style="transform:matrix(1, 0, 0, 1, -0.00542974, 0);animation-play-state:paused" ></circle>
<circle cx="96.7495288924732" cy="457.3906698920114" r="78.08659985015944" fill="#c4d2ff" transform="matrix(1,0,0,1,-0.022117653861641884,0)" style="transform:matrix(1, 0, 0, 1, -0.0221177, 0);animation-play-state:paused" ></circle>
<circle cx="174.83612874263264" cy="470.0908849288724" r="79.78217259514456" fill="#c4d2ff" transform="matrix(1,0,0,1,-0.05069183558225632,0)" style="transform:matrix(1, 0, 0, 1, -0.0506918, 0);animation-play-state:paused" ></circle>
<circle cx="254.6183013377772" cy="457.84262389195385" r="34.90032569517987" fill="#c4d2ff" transform="matrix(1,0,0,1,-0.09182170033454895,0)" style="transform:matrix(1, 0, 0, 1, -0.0918217, 0);animation-play-state:paused" ></circle>
<circle cx="289.51862703295706" cy="394.32000188452207" r="80.26414416625666" fill="#c4d2ff" transform="matrix(1,0,0,1,-0.14621886610984802,0)" style="transform:matrix(1, 0, 0, 1, -0.146219, 0);animation-play-state:paused" ></circle>
<circle cx="0" cy="461.05577707695113" r="79.12018576920738" fill="#cfd8ff" transform="matrix(1,0,0,1,0,0)" style="transform:matrix(1, 0, 0, 1, 0, 0);animation-play-state:paused" ></circle>
<circle cx="79.12018576920738" cy="518.7672126648209" r="67.73327913483392" fill="#cfd8ff" transform="matrix(1,0,0,1,-0.022117653861641884,0)" style="transform:matrix(1, 0, 0, 1, -0.0221177, 0);animation-play-state:paused" ></circle>
<circle cx="146.8534649040413" cy="555.2955454742323" r="100.424321565613" fill="#cfd8ff" transform="matrix(1,0,0,1,-0.09182170033454895,0)" style="transform:matrix(1, 0, 0, 1, -0.0918217, 0);animation-play-state:paused" ></circle>
<circle cx="247.2777864696543" cy="523.8067128931303" r="38.67432403362616" fill="#cfd8ff" transform="matrix(1,0,0,1,-0.21463720500469208,0)" style="transform:matrix(1, 0, 0, 1, -0.214637, 0);animation-play-state:paused" ></circle>
<circle cx="285.95211050328044" cy="483.97572981463736" r="62.613938732614194" fill="#cfd8ff" transform="matrix(1,0,0,1,-0.3967548906803131,0)" style="transform:matrix(1, 0, 0, 1, -0.396755, 0);animation-play-state:paused" ></circle>
<circle cx="348.56604923589464" cy="464.10406871486896" r="55.19519031874238" fill="#cfd8ff" transform="matrix(1,0,0,1,-0.6449503302574158,0)" style="transform:matrix(1, 0, 0, 1, -0.64495, 0);animation-play-state:paused" ></circle>
<circle cx="0" cy="535.5126846765621" r="72.90609610286491" fill="#daddff" transform="matrix(1,0,0,1,0,0)" style="transform:matrix(1, 0, 0, 1, 0, 0);animation-play-state:paused" ></circle>
<circle cx="72.90609610286491" cy="592.7393582237964" r="50.36960977328604" fill="#daddff" transform="matrix(1,0,0,1,-0.05069185048341751,0)" style="transform:matrix(1, 0, 0, 1, -0.0506918, 0);animation-play-state:paused" ></circle>
<circle cx="123.27570587615094" cy="606.3822463269349" r="88.9720352091238" fill="#daddff" transform="matrix(1,0,0,1,-0.21463724970817566,0)" style="transform:matrix(1, 0, 0, 1, -0.214637, 0);animation-play-state:paused" ></circle>
<circle cx="212.24774108527475" cy="588.4106913748112" r="63.52466987990209" fill="#daddff" transform="matrix(1,0,0,1,-0.5121520161628723,0)" style="transform:matrix(1, 0, 0, 1, -0.512152, 0);animation-play-state:paused" ></circle>
<circle cx="275.77241096517685" cy="537.4126814107378" r="80.24142947061236" fill="#daddff" transform="matrix(1,0,0,1,-0.9663259983062744,0)" style="transform:matrix(1, 0, 0, 1, -0.966326, 0);animation-play-state:paused" ></circle>
<circle cx="0" cy="626.4366631553338" r="52.96944737055515" fill="#e3e3fe" transform="matrix(1,0,0,1,0,0)" style="transform:matrix(1, 0, 0, 1, 0, 0);animation-play-state:paused" ></circle>
<circle cx="52.96944737055515" cy="636.9297116368699" r="69.40607038958053" fill="#e3e3fe" transform="matrix(1,0,0,1,-0.09182170033454895,0)" style="transform:matrix(1, 0, 0, 1, -0.0918217, 0);animation-play-state:paused" ></circle>
<circle cx="122.3755177601357" cy="678.1911343826164" r="60.81594941188958" fill="#e3e3fe" transform="matrix(1,0,0,1,-0.3967548906803131,0)" style="transform:matrix(1, 0, 0, 1, -0.396755, 0);animation-play-state:paused" ></circle>
<circle cx="183.19146717202528" cy="671.9844318063169" r="58.935403653022206" fill="#e3e3fe" transform="matrix(1,0,0,1,-0.9663257002830505,0)" style="transform:matrix(1, 0, 0, 1, -0.966326, 0);animation-play-state:paused" ></circle>
<circle cx="242.1268708250475" cy="662.8364855055793" r="34.38054557609403" fill="#e3e3fe" transform="matrix(1,0,0,1,-1.8546782732009888,0)" style="transform:matrix(1, 0, 0, 1, -1.85468, 0);animation-play-state:paused" ></circle>
<circle cx="276.50741640114154" cy="632.2607058474263" r="53.82795590433863" fill="#e3e3fe" transform="matrix(1,0,0,1,-3.0886495113372803,0)" style="transform:matrix(1, 0, 0, 1, -3.08865, 0);animation-play-state:paused" ></circle>
<circle cx="330.3353723054802" cy="585.1362434587277" r="69.2131062690357" fill="#e3e3fe" transform="matrix(1,0,0,1,-4.60075569152832,0)" style="transform:matrix(1, 0, 0, 1, -4.60076, 0);animation-play-state:paused" ></circle>
<circle cx="0" cy="675.5086673136462" r="67.90944390529484" fill="#eceafe" transform="matrix(1,0,0,1,0,0)" style="transform:matrix(1, 0, 0, 1, 0, 0);animation-play-state:paused" ></circle>
<circle cx="67.90944390529484" cy="714.4124590002335" r="66.35225069581641" fill="#eceafe" transform="matrix(1,0,0,1,-0.14621886610984802,0)" style="transform:matrix(1, 0, 0, 1, -0.146219, 0);animation-play-state:paused" ></circle>
<circle cx="134.26169460111123" cy="750.5422320526678" r="66.93428681222846" fill="#eceafe" transform="matrix(1,0,0,1,-0.6449503302574158,0)" style="transform:matrix(1, 0, 0, 1, -0.64495, 0);animation-play-state:paused" ></circle>
<circle cx="201.1959814133397" cy="716.024116880083" r="90.3217767900467" fill="#eceafe" transform="matrix(1,0,0,1,-1.600266933441162,0)" style="transform:matrix(1, 0, 0, 1, -1.60027, 0);animation-play-state:paused" ></circle>
<circle cx="291.5177582033864" cy="706.8606901598401" r="41.9212250967558" fill="#eceafe" transform="matrix(1,0,0,1,-3.0886495113372803,0)" style="transform:matrix(1, 0, 0, 1, -3.08865, 0);animation-play-state:paused" ></circle>
<circle cx="333.4389833001422" cy="645.8357739788416" r="72.15671251757165" fill="#eceafe" transform="matrix(1,0,0,1,-5,0)" style="transform:matrix(1, 0, 0, 1, -5, 0);animation-play-state:paused" ></circle>
<circle cx="0" cy="718.7351272192116" r="87.72072731732372" fill="#f3f1fe" transform="matrix(1,0,0,1,0,0)" style="transform:matrix(1, 0, 0, 1, 0, 0);animation-play-state:paused" ></circle>
<circle cx="87.72072731732372" cy="793.8152945345046" r="63.01507086915997" fill="#f3f1fe" transform="matrix(1,0,0,1,-0.2146373838186264,0)" style="transform:matrix(1, 0, 0, 1, -0.214637, 0);animation-play-state:paused" ></circle>
<circle cx="150.7357981864837" cy="820.978777826967" r="77.61775662262497" fill="#f3f1fe" transform="matrix(1,0,0,1,-0.9663266539573669,0)" style="transform:matrix(1, 0, 0, 1, -0.966327, 0);animation-play-state:paused" ></circle>
<circle cx="228.35355480910866" cy="760.199983629254" r="94.2562266206982" fill="#f3f1fe" transform="matrix(1,0,0,1,-2.4294822216033936,0)" style="transform:matrix(1, 0, 0, 1, -2.42948, 0);animation-play-state:paused" ></circle>
<circle cx="322.60978142980684" cy="714.0230816521569" r="75.76321626881297" fill="#f3f1fe" transform="matrix(1,0,0,1,-4.600759983062744,0)" style="transform:matrix(1, 0, 0, 1, -4.60076, 0);animation-play-state:paused" ></circle>
<circle cx="0" cy="792.0616411545725" r="82.44863237118957" fill="#f9f8fe" transform="matrix(1,0,0,1,0,0)" style="transform:matrix(1, 0, 0, 1, 0, 0);animation-play-state:paused" ></circle>
<circle cx="82.44863237118957" cy="866.6068794164013" r="46.699697925290245" fill="#f9f8fe" transform="matrix(1,0,0,1,-0.297871857881546,0)" style="transform:matrix(1, 0, 0, 1, -0.297872, 0);animation-play-state:paused" ></circle>
<circle cx="129.14833029647983" cy="880.5083354901324" r="75.74833064962822" fill="#f9f8fe" transform="matrix(1,0,0,1,-1.3677345514297485,0)" style="transform:matrix(1, 0, 0, 1, -1.36773, 0);animation-play-state:paused" ></circle>
<circle cx="204.89666094610806" cy="851.1604660884617" r="82.29911873961342" fill="#f9f8fe" transform="matrix(1,0,0,1,-3.4464633464813232,0)" style="transform:matrix(1, 0, 0, 1, -3.44646, 0);animation-play-state:paused" ></circle>
<circle cx="287.1957796857215" cy="782.8418823188249" r="93.19851967601252" fill="#f9f8fe" transform="matrix(1,0,0,1,-6.1800312995910645,0)" style="transform:matrix(1, 0, 0, 1, -6.18003, 0);animation-play-state:paused" ></circle>
<circle cx="0" cy="897.247453723711" r="50.62712189690751" fill="#ffffff" transform="matrix(1,0,0,1,0,0)" style="transform:matrix(1, 0, 0, 1, 0, 0);animation-play-state:paused" ></circle>
<circle cx="50.62712189690751" cy="907.3009745736572" r="64.67647353793869" fill="#ffffff" transform="matrix(1,0,0,1,-0.3967548906803131,0)" style="transform:matrix(1, 0, 0, 1, -0.396755, 0);animation-play-state:paused" ></circle>
<circle cx="115.3035954348462" cy="937.3411853374231" r="81.88219932876036" fill="#ffffff" transform="matrix(1,0,0,1,-1.8546782732009888,0)" style="transform:matrix(1, 0, 0, 1, -1.85468, 0);animation-play-state:paused" ></circle>
<circle cx="197.18579476360657" cy="932.8305813259361" r="59.826740722767944" fill="#ffffff" transform="matrix(1,0,0,1,-4.60075569152832,0)" style="transform:matrix(1, 0, 0, 1, -4.60076, 0);animation-play-state:paused" ></circle>
<circle cx="257.01253548637453" cy="888.7021333689131" r="75.94854403762724" fill="#ffffff" transform="matrix(1,0,0,1,-7.57051944732666,0)" style="transform:matrix(1, 0, 0, 1, -7.57052, 0);animation-play-state:paused" ></circle>
<circle cx="332.9610795240018" cy="856.7439792500363" r="65.89330012398305" fill="#ffffff" transform="matrix(1,0,0,1,-9.355050086975098,0)" style="transform:matrix(1, 0, 0, 1, -9.35505, 0);animation-play-state:paused" ></circle></g></svg>